<?xml version="1.0" encoding="UTF-8" standalone="no"?>
<svg
   xmlns:dc="http://purl.org/dc/elements/1.1/"
   xmlns:cc="http://creativecommons.org/ns#"
   xmlns:rdf="http://www.w3.org/1999/02/22-rdf-syntax-ns#"
   xmlns:svg="http://www.w3.org/2000/svg"
   xmlns="http://www.w3.org/2000/svg"
   version="1.1"
   id="svg2"
   viewBox="0 0 20 13.825125"
   height="3.9017575mm"
   width="5.6444445mm">
  <defs
     id="defs4">
    <radialGradient
       fx="0"
       fy="0"
       cx="0"
       cy="0"
       r="1"
       gradientUnits="userSpaceOnUse"
       gradientTransform="matrix(-1.9585114,8.051712,8.051712,1.9585114,10.444336,3.1279297)"
       spreadMethod="pad"
       id="radialGradient3362">
      <stop
         style="stop-opacity:1;stop-color:#0084ca"
         offset="0"
         id="stop3364" />
      <stop
         style="stop-opacity:1;stop-color:#0084ca"
         offset="0.110428"
         id="stop3366" />
      <stop
         style="stop-opacity:1;stop-color:#302960"
         offset="1"
         id="stop3368" />
    </radialGradient>
    <radialGradient
       fx="0"
       fy="0"
       cx="0"
       cy="0"
       r="1"
       gradientUnits="userSpaceOnUse"
       gradientTransform="matrix(-1.9566498,8.0440369,8.0440369,1.9566498,10.445313,3.3964844)"
       spreadMethod="pad"
       id="radialGradient3384">
      <stop
         style="stop-opacity:1;stop-color:#0084ca"
         offset="0"
         id="stop3386" />
      <stop
         style="stop-opacity:1;stop-color:#0084ca"
         offset="0.110428"
         id="stop3388" />
      <stop
         style="stop-opacity:1;stop-color:#302960"
         offset="1"
         id="stop3390" />
    </radialGradient>
    <radialGradient
       fx="0"
       fy="0"
       cx="0"
       cy="0"
       r="1"
       gradientUnits="userSpaceOnUse"
       gradientTransform="matrix(-1.9576111,8.0480042,8.0480042,1.9576111,10.446289,3.4365234)"
       spreadMethod="pad"
       id="radialGradient3406">
      <stop
         style="stop-opacity:1;stop-color:#009bd9"
         offset="0"
         id="stop3408" />
      <stop
         style="stop-opacity:1;stop-color:#0084ca"
         offset="0.398773"
         id="stop3410" />
      <stop
         style="stop-opacity:1;stop-color:#302960"
         offset="1"
         id="stop3412" />
    </radialGradient>
    <radialGradient
       fx="0"
       fy="0"
       cx="0"
       cy="0"
       r="1"
       gradientUnits="userSpaceOnUse"
       gradientTransform="matrix(0,6.2841492,6.2841492,0,9.1074219,9.2529297)"
       spreadMethod="pad"
       id="radialGradient3428">
      <stop
         style="stop-opacity:1;stop-color:#0084ca"
         offset="0"
         id="stop3430" />
      <stop
         style="stop-opacity:1;stop-color:#0084ca"
         offset="0.110428"
         id="stop3432" />
      <stop
         style="stop-opacity:1;stop-color:#302960"
         offset="1"
         id="stop3434" />
    </radialGradient>
  </defs>
  <metadata
     id="metadata7">
    <rdf:RDF>
      <cc:Work
         rdf:about="">
        <dc:format>image/svg+xml</dc:format>
        <dc:type
           rdf:resource="http://purl.org/dc/dcmitype/StillImage" />
        <dc:title></dc:title>
      </cc:Work>
    </rdf:RDF>
  </metadata>
  <g
     transform="translate(-365,-525.44964)"
     id="layer1">
    <g
       id="g3344"
       transform="matrix(1.25,0,0,-1.25,365,542.56214)">
      <g
         id="g3346"
         transform="translate(16,2.6299)">
        <path
           d="m 0,0 -14.12,0 0,1.028 0.61,-0.528 0.638,0.528 5.402,0 0.594,-0.528 0.641,0.528 5,0 L -0.633,0.502 0,1.028 0,0 Z"
           style="fill:#ea5a22;fill-opacity:1;fill-rule:nonzero;stroke:none"
           id="path3348" />
      </g>
      <g
         id="g3350">
        <g
           id="g3352">
          <g
             id="g3358">
            <g
               id="g3360">
              <path
                 d="m 4.446,13.69 c -0.366,0 -0.697,-0.045 -0.99,-0.136 l 0,0 C 3.212,13.463 2.98,13.333 2.76,13.166 l 0,0 C 2.188,12.625 1.902,11.964 1.902,11.182 l 0,0 0,-0.56 -1.457,0 L 0,9.402 l 1.902,0 0,-5.098 0.587,-0.649 0.632,0.649 0,5.098 1.362,0 0.445,1.22 -1.807,0 0,0.56 c 0,0.192 0.044,0.404 0.131,0.633 l 0,0 c 0.168,0.437 0.566,0.654 1.194,0.654 l 0,0 0.078,0 0,1.221 -0.078,0 z"
                 style="fill:url(#radialGradient3362);stroke:none"
                 id="path3370" />
            </g>
          </g>
        </g>
      </g>
      <g
         id="g3372">
        <g
           id="g3374">
          <g
             id="g3380">
            <g
               id="g3382">
              <path
                 d="m 9.162,9.789 c -0.517,0.555 -1.129,0.833 -1.837,0.833 l 0,0 c -1.776,0 -2.444,-1.158 -2.444,-2.508 l 0,0 -0.006,-3.512 1.219,0 0,3.595 c 0,0.299 0.216,1.205 1.275,1.205 l 0,0 c 0.983,0 1.176,-0.747 1.176,-1.194 l 0,0 0,-3.905 0.581,-0.507 0.639,0.507 0,3.717 c 0,0.247 0.031,0.453 0.094,0.617 l 0,0 c 0.262,0.51 0.643,0.765 1.141,0.765 l 0,0 c 0.094,0 0.22,-0.019 0.378,-0.053 l 0,0 C 11.947,9.108 12.23,8.705 12.23,8.141 l 0,0 0,-3.539 1.221,0 0,3.648 c 0,0.646 -0.338,2.385 -2.41,2.385 l 0,0 c -0.74,0 -1.375,-0.291 -1.879,-0.846"
                 style="fill:url(#radialGradient3384);stroke:none"
                 id="path3392" />
            </g>
          </g>
        </g>
      </g>
      <g
         id="g3394">
        <g
           id="g3396">
          <g
             id="g3402">
            <g
               id="g3404">
              <path
                 d="m 14.765,8.547 0,-4.245 0.603,-0.506 0.63,0.506 0,4.245 -1.233,0 z"
                 style="fill:url(#radialGradient3406);stroke:none"
                 id="path3414" />
            </g>
          </g>
        </g>
      </g>
      <g
         id="g3416">
        <g
           id="g3418">
          <g
             id="g3424">
            <g
               id="g3426">
              <path
                 d="m 14.767,9.105 1.233,0 0,1.516 -1.233,0 0,-1.516 z"
                 style="fill:url(#radialGradient3428);stroke:none"
                 id="path3436" />
            </g>
          </g>
        </g>
      </g>
    </g>
  </g>
</svg>
