<?xml version="1.0" encoding="UTF-8" standalone="no"?>
<!-- Created with Inkscape (http://www.inkscape.org/) -->

<svg
   xmlns:dc="http://purl.org/dc/elements/1.1/"
   xmlns:cc="http://creativecommons.org/ns#"
   xmlns:rdf="http://www.w3.org/1999/02/22-rdf-syntax-ns#"
   xmlns:svg="http://www.w3.org/2000/svg"
   xmlns="http://www.w3.org/2000/svg"
   xmlns:sodipodi="http://sodipodi.sourceforge.net/DTD/sodipodi-0.dtd"
   xmlns:inkscape="http://www.inkscape.org/namespaces/inkscape"
   width="120.38438mm"
   height="117.7229mm"
   viewBox="0 0 426.55881 417.12839"
   id="svg4499"
   version="1.1"
   inkscape:version="0.91 r13725"
   sodipodi:docname="logotype_FMU_vertical_RVB.svg">
  <defs
     id="defs4501">
    <radialGradient
       id="radialGradient4529"
       spreadMethod="pad"
       gradientTransform="matrix(-37.138428,148.55528,148.55528,37.138428,225.21631,168.22119)"
       gradientUnits="userSpaceOnUse"
       r="1"
       cy="0"
       cx="0"
       fy="0"
       fx="0">
      <stop
         id="stop4531"
         offset="0"
         style="stop-opacity:1;stop-color:#0097d8" />
      <stop
         id="stop4533"
         offset="0.398773"
         style="stop-opacity:1;stop-color:#0097d8" />
      <stop
         id="stop4535"
         offset="1"
         style="stop-opacity:1;stop-color:#22185c" />
    </radialGradient>
    <radialGradient
       id="radialGradient4551"
       spreadMethod="pad"
       gradientTransform="matrix(-37.138535,148.55568,148.55568,37.138535,225.21826,168.22119)"
       gradientUnits="userSpaceOnUse"
       r="1"
       cy="0"
       cx="0"
       fy="0"
       fx="0">
      <stop
         id="stop4553"
         offset="0"
         style="stop-opacity:1;stop-color:#0097d8" />
      <stop
         id="stop4555"
         offset="0.398773"
         style="stop-opacity:1;stop-color:#0097d8" />
      <stop
         id="stop4557"
         offset="1"
         style="stop-opacity:1;stop-color:#22185c" />
    </radialGradient>
    <radialGradient
       id="radialGradient4573"
       spreadMethod="pad"
       gradientTransform="matrix(98.000687,0,0,-97.707565,189.46826,171.47168)"
       gradientUnits="userSpaceOnUse"
       r="1"
       cy="0"
       cx="0"
       fy="0"
       fx="0">
      <stop
         id="stop4575"
         offset="0"
         style="stop-opacity:1;stop-color:#ffe69c" />
      <stop
         id="stop4577"
         offset="0.578659"
         style="stop-opacity:1;stop-color:#ec6a00" />
      <stop
         id="stop4579"
         offset="1"
         style="stop-opacity:1;stop-color:#90100d" />
    </radialGradient>
    <radialGradient
       id="radialGradient4595"
       spreadMethod="pad"
       gradientTransform="matrix(-37.139816,148.56081,148.56081,37.139816,225.21631,168.22119)"
       gradientUnits="userSpaceOnUse"
       r="1"
       cy="0"
       cx="0"
       fy="0"
       fx="0">
      <stop
         id="stop4597"
         offset="0"
         style="stop-opacity:1;stop-color:#0097d8" />
      <stop
         id="stop4599"
         offset="0.398773"
         style="stop-opacity:1;stop-color:#0097d8" />
      <stop
         id="stop4601"
         offset="1"
         style="stop-opacity:1;stop-color:#22185c" />
    </radialGradient>
    <radialGradient
       id="radialGradient4617"
       spreadMethod="pad"
       gradientTransform="matrix(8.6363068,0,0,-8.6363068,184.88721,79.226074)"
       gradientUnits="userSpaceOnUse"
       r="1"
       cy="0"
       cx="0"
       fy="0"
       fx="0">
      <stop
         id="stop4619"
         offset="0"
         style="stop-opacity:1;stop-color:#ffe69c" />
      <stop
         id="stop4621"
         offset="0.578659"
         style="stop-opacity:1;stop-color:#ec6a00" />
      <stop
         id="stop4623"
         offset="1"
         style="stop-opacity:1;stop-color:#90100d" />
    </radialGradient>
    <clipPath
       id="clipPath4631"
       clipPathUnits="userSpaceOnUse">
      <path
         inkscape:connector-curvature="0"
         id="path4633"
         d="m 0,385.176 403.303,0 L 403.303,0 0,0 0,385.176 Z" />
    </clipPath>
  </defs>
  <sodipodi:namedview
     id="base"
     pagecolor="#ffffff"
     bordercolor="#666666"
     borderopacity="1.0"
     inkscape:pageopacity="0.0"
     inkscape:pageshadow="2"
     inkscape:zoom="0.35"
     inkscape:cx="-454.57773"
     inkscape:cy="668.56417"
     inkscape:document-units="px"
     inkscape:current-layer="layer1"
     showgrid="false"
     fit-margin-top="0"
     fit-margin-left="0"
     fit-margin-right="0"
     fit-margin-bottom="0"
     inkscape:window-width="1227"
     inkscape:window-height="905"
     inkscape:window-x="107"
     inkscape:window-y="25"
     inkscape:window-maximized="0" />
  <metadata
     id="metadata4504">
    <rdf:RDF>
      <cc:Work
         rdf:about="">
        <dc:format>image/svg+xml</dc:format>
        <dc:type
           rdf:resource="http://purl.org/dc/dcmitype/StillImage" />
        <dc:title></dc:title>
      </cc:Work>
    </rdf:RDF>
  </metadata>
  <g
     inkscape:label="Layer 1"
     inkscape:groupmode="layer"
     id="layer1"
     transform="translate(-829.57773,-783.798)">
    <g
       transform="matrix(1.25,0,0,-1.25,797.13148,1232.8905)"
       inkscape:label="logotype_FMU_vertical_RVB"
       id="g4515">
      <g
         id="g4517">
        <g
           id="g4519">
          <g
             id="g4525">
            <g
               id="g4527">
              <path
                 inkscape:connector-curvature="0"
                 id="path4537"
                 style="fill:url(#radialGradient4529);stroke:none"
                 d="m 105.164,359.274 c -6.528,0 -12.405,-0.805 -17.635,-2.422 l 0,0 c -4.349,-1.624 -8.487,-3.92 -12.397,-6.9 l 0,0 C 64.926,340.308 59.833,328.521 59.833,314.594 l 0,0 0,-9.987 -25.947,0 -7.929,-21.722 33.876,0 0,-96.797 10.58,-9.183 11.151,9.183 0,96.797 24.262,0 7.943,21.722 -32.205,0 0,9.987 c 0,3.416 0.777,7.186 2.335,11.29 l 0,0 c 2.985,7.771 10.074,11.656 21.265,11.656 l 0,0 1.394,0 0,21.734 -1.394,0 z" />
            </g>
          </g>
        </g>
      </g>
      <g
         id="g4539">
        <g
           id="g4541">
          <g
             id="g4547">
            <g
               id="g4549">
              <path
                 inkscape:connector-curvature="0"
                 id="path4559"
                 style="fill:url(#radialGradient4551);stroke:none"
                 d="m 189.199,289.787 c -9.207,9.884 -20.114,14.82 -32.738,14.82 l 0,0 c -31.637,0 -43.559,-20.611 -43.559,-44.656 l 0,0 -0.096,-62.498 21.73,0 0,63.974 c 0,5.322 3.836,21.458 22.712,21.458 l 0,0 c 17.514,0 20.945,-13.31 20.945,-21.274 l 0,0 0,-75.523 10.723,-9.183 11.007,9.183 0,72.17 c 0,4.414 0.557,8.082 1.683,11.002 l 0,0 c 4.661,9.08 11.442,13.625 20.337,13.625 l 0,0 c 1.672,0 3.912,-0.318 6.715,-0.938 l 0,0 c 10.133,-4.293 15.201,-11.475 15.201,-21.547 l 0,0 0,-62.947 21.73,0 0,64.902 c 0,11.502 -6.002,42.513 -42.922,42.513 l 0,0 c -13.189,0 -24.513,-5.197 -33.468,-15.081" />
            </g>
          </g>
        </g>
      </g>
      <g
         id="g4561">
        <g
           id="g4563">
          <g
             id="g4569">
            <g
               id="g4571">
              <path
                 inkscape:connector-curvature="0"
                 id="path4581"
                 style="fill:url(#radialGradient4573);stroke:none"
                 d="m 324.91,171.234 -10.377,9.397 -114.553,0 -11.103,-9.397 -10.694,9.397 -96.541,0 -11.229,-9.397 -10.697,9.397 0,-18.32 276.578,0 0,18.32 -11.384,-9.397 z" />
            </g>
          </g>
        </g>
      </g>
      <g
         id="g4583">
        <g
           id="g4585">
          <g
             id="g4591">
            <g
               id="g4593">
              <path
                 inkscape:connector-curvature="0"
                 id="path4603"
                 style="fill:url(#radialGradient4595);stroke:none"
                 d="m 345.472,304.587 0,-69.587 c 0,-7.959 -3.432,-21.272 -20.946,-21.272 l 0,0 c -18.872,0 -22.712,16.136 -22.712,21.458 l 0,0 0,69.401 -21.729,0 0.099,-67.926 c 0,-21.547 9.581,-40.323 34.335,-43.994 l 0,0 0,-6.579 10.481,-9.183 11.252,9.183 0,7.712 c 7.468,2.235 14.213,6.569 20.228,13.024 l 0,0 -0.14,0 c 10.983,9.651 10.864,31.53 10.864,31.53 l 0,0 0,66.233 -21.732,0 z" />
            </g>
          </g>
        </g>
      </g>
      <g
         id="g4605">
        <g
           id="g4607">
          <g
             id="g4613">
            <g
               id="g4615">
              <path
                 inkscape:connector-curvature="0"
                 id="path4625"
                 style="fill:url(#radialGradient4617);stroke:none"
                 d="m 181.013,75.416 c 0,-3.14 2.541,-5.688 5.68,-5.688 l 0,0 c 3.14,0 5.687,2.548 5.687,5.688 l 0,0 c 0,3.136 -2.547,5.684 -5.687,5.684 l 0,0 c -3.139,0 -5.68,-2.548 -5.68,-5.684" />
            </g>
          </g>
        </g>
      </g>
      <g
         id="g4627">
        <g
           clip-path="url(#clipPath4631)"
           id="g4629">
          <g
             transform="translate(68.0835,121.2236)"
             id="g4635">
            <path
               inkscape:connector-curvature="0"
               id="path4637"
               style="fill:#00376f;fill-opacity:1;fill-rule:nonzero;stroke:none"
               d="m 0,0 0,-8.01 10.592,0 0,-4.155 -10.592,0 0,-11.004 -4.679,0 0,27.433 16.731,0 L 12.052,0 0,0 Z" />
          </g>
          <g
             transform="translate(107.3022,108.5718)"
             id="g4639">
            <path
               inkscape:connector-curvature="0"
               id="path4641"
               style="fill:#00376f;fill-opacity:1;fill-rule:nonzero;stroke:none"
               d="m 0,0 c 0,-1.747 -0.261,-3.301 -0.784,-4.657 -0.525,-1.362 -1.261,-2.51 -2.209,-3.444 -0.948,-0.935 -2.103,-1.649 -3.462,-2.133 -1.36,-0.486 -2.889,-0.729 -4.583,-0.729 -3.444,0 -6.12,0.933 -8.028,2.805 -1.91,1.873 -2.864,4.588 -2.864,8.158 l 0,16.916 4.678,0 0,-16.581 c 0,-2.367 0.549,-4.132 1.647,-5.294 1.097,-1.159 2.644,-1.74 4.641,-1.74 1.971,0 3.512,0.585 4.622,1.759 1.11,1.173 1.664,2.932 1.664,5.275 l 0,16.581 4.678,0 L 0,0 Z" />
          </g>
          <g
             transform="translate(136.3081,97.5303)"
             id="g4643">
            <path
               inkscape:connector-curvature="0"
               id="path4645"
               style="fill:#00376f;fill-opacity:1;fill-rule:nonzero;stroke:none"
               d="m 0,0 -17.178,18.114 0,-17.59 -4.677,0 0,27.807 0.748,0.15 16.955,-17.851 0,17.327 4.675,0 0,-27.844 L 0,0 Z" />
          </g>
          <g
             transform="translate(167.1089,100.1895)"
             id="g4647">
            <path
               inkscape:connector-curvature="0"
               id="path4649"
               style="fill:#00376f;fill-opacity:1;fill-rule:nonzero;stroke:none"
               d="m 0,0 c -1.148,-0.727 -2.496,-1.333 -4.041,-1.833 -1.549,-0.498 -3.183,-0.748 -4.904,-0.748 -2.172,0 -4.16,0.352 -5.969,1.063 -1.81,0.714 -3.369,1.7 -4.678,2.958 -1.31,1.259 -2.328,2.751 -3.051,4.473 -0.724,1.72 -1.086,3.604 -1.086,5.65 0,2.022 0.368,3.898 1.106,5.634 0.734,1.735 1.759,3.236 3.066,4.511 1.313,1.271 2.871,2.263 4.68,2.975 1.811,0.71 3.785,1.064 5.932,1.064 1.721,0 3.332,-0.237 4.828,-0.71 1.498,-0.474 2.831,-1.073 4.004,-1.799 l -1.609,-3.965 c -1.098,0.623 -2.284,1.131 -3.555,1.518 -1.274,0.387 -2.52,0.577 -3.743,0.577 -1.497,0 -2.844,-0.237 -4.042,-0.711 -1.198,-0.473 -2.214,-1.141 -3.051,-2.001 -0.834,-0.86 -1.478,-1.896 -1.927,-3.109 -0.447,-1.205 -0.675,-2.535 -0.675,-3.984 0,-1.447 0.233,-2.767 0.694,-3.966 0.46,-1.196 1.118,-2.226 1.966,-3.087 0.848,-0.862 1.875,-1.53 3.086,-2.002 1.211,-0.474 2.565,-0.713 4.061,-0.713 1.222,0 2.496,0.2 3.817,0.599 1.323,0.398 2.544,0.923 3.668,1.575 L 0,0 Z" />
          </g>
          <g
             transform="translate(184.062,121.2236)"
             id="g4651">
            <path
               inkscape:connector-curvature="0"
               id="path4653"
               style="fill:#00376f;fill-opacity:1;fill-rule:nonzero;stroke:none"
               d="m 0,0 0,-23.169 -4.679,0 0,23.169 -8.719,0 0,4.264 22.08,0 L 8.682,0 0,0 Z" />
          </g>
          <path
             inkscape:connector-curvature="0"
             id="path4655"
             style="fill:#00376f;fill-opacity:1;fill-rule:nonzero;stroke:none"
             d="m 198.357,125.487 4.68,0 0,-27.433 -4.68,0 0,27.433 z" />
          <g
             transform="translate(232.4897,111.752)"
             id="g4657">
            <path
               inkscape:connector-curvature="0"
               id="path4659"
               style="fill:#00376f;fill-opacity:1;fill-rule:nonzero;stroke:none"
               d="m 0,0 c 0,1.423 -0.217,2.745 -0.654,3.967 -0.438,1.224 -1.043,2.284 -1.817,3.183 -0.775,0.897 -1.703,1.595 -2.787,2.095 -1.088,0.502 -2.277,0.747 -3.576,0.747 -1.295,0 -2.494,-0.245 -3.592,-0.747 -1.097,-0.5 -2.033,-1.198 -2.806,-2.095 -0.774,-0.899 -1.379,-1.959 -1.816,-3.183 -0.436,-1.222 -0.655,-2.544 -0.655,-3.967 0,-1.422 0.219,-2.744 0.655,-3.966 0.437,-1.222 1.042,-2.274 1.816,-3.162 0.773,-0.887 1.709,-1.585 2.806,-2.094 1.098,-0.513 2.297,-0.77 3.592,-0.77 1.299,0 2.488,0.257 3.576,0.77 1.084,0.509 2.012,1.207 2.787,2.094 0.774,0.888 1.379,1.94 1.817,3.162 C -0.217,-2.744 0,-1.422 0,0 m 5.016,0 c 0,-2.019 -0.358,-3.897 -1.071,-5.629 -0.709,-1.736 -1.693,-3.234 -2.953,-4.494 -1.26,-1.258 -2.74,-2.243 -4.435,-2.957 -1.698,-0.711 -3.543,-1.063 -5.541,-1.063 -1.969,0 -3.797,0.352 -5.481,1.063 -1.684,0.714 -3.139,1.699 -4.361,2.957 -1.223,1.26 -2.176,2.758 -2.862,4.494 -0.687,1.732 -1.029,3.61 -1.029,5.629 0,2.047 0.358,3.939 1.066,5.671 0.711,1.734 1.696,3.23 2.958,4.491 1.257,1.258 2.744,2.246 4.453,2.958 1.709,0.711 3.547,1.065 5.519,1.065 1.994,0 3.83,-0.354 5.502,-1.065 1.672,-0.712 3.119,-1.7 4.342,-2.958 C 2.346,8.901 3.299,7.405 3.986,5.671 4.67,3.939 5.016,2.047 5.016,0" />
          </g>
          <g
             transform="translate(265.9097,97.5303)"
             id="g4661">
            <path
               inkscape:connector-curvature="0"
               id="path4663"
               style="fill:#00376f;fill-opacity:1;fill-rule:nonzero;stroke:none"
               d="m 0,0 -17.178,18.114 0,-17.59 -4.679,0 0,27.807 0.748,0.15 16.955,-17.851 0,17.327 4.677,0 0,-27.844 L 0,0 Z" />
          </g>
          <g
             transform="translate(283.7241,117.2183)"
             id="g4665">
            <path
               inkscape:connector-curvature="0"
               id="path4667"
               style="fill:#00376f;fill-opacity:1;fill-rule:nonzero;stroke:none"
               d="m 0,0 -3.893,-9.171 7.784,0 L 0,0 Z m 8.082,-19.164 -2.658,6.288 -10.85,0 -2.658,-6.288 -4.83,0 12.65,27.807 0.676,0 12.611,-27.807 -4.941,0 z" />
          </g>
          <g
             transform="translate(301.1245,98.0542)"
             id="g4669">
            <path
               inkscape:connector-curvature="0"
               id="path4671"
               style="fill:#00376f;fill-opacity:1;fill-rule:nonzero;stroke:none"
               d="m 0,0 0,27.433 4.68,0 0,-23.165 12.05,0 L 16.73,0 0,0 Z" />
          </g>
          <g
             transform="translate(86.2339,61.2412)"
             id="g4673">
            <path
               inkscape:connector-curvature="0"
               id="path4675"
               style="fill:#00376f;fill-opacity:1;fill-rule:nonzero;stroke:none"
               d="M 0,0 -0.373,16.43 -9.02,3.329 l -0.56,0 -8.721,13.135 L -18.6,0 l -4.603,0 1.159,27.771 0.712,0.075 L -9.168,9.657 2.695,27.846 3.443,27.771 4.604,0 0,0 Z" />
          </g>
          <g
             transform="translate(119.729,74.9375)"
             id="g4677">
            <path
               inkscape:connector-curvature="0"
               id="path4679"
               style="fill:#00376f;fill-opacity:1;fill-rule:nonzero;stroke:none"
               d="m 0,0 c 0,1.424 -0.218,2.748 -0.654,3.968 -0.439,1.222 -1.044,2.285 -1.817,3.184 -0.772,0.894 -1.703,1.599 -2.787,2.095 -1.087,0.501 -2.278,0.749 -3.575,0.749 -1.297,0 -2.494,-0.248 -3.594,-0.749 C -13.524,8.751 -14.46,8.046 -15.232,7.152 -16.006,6.253 -16.61,5.19 -17.048,3.968 -17.485,2.748 -17.702,1.424 -17.702,0 c 0,-1.42 0.217,-2.742 0.654,-3.965 0.438,-1.223 1.042,-2.274 1.816,-3.163 0.772,-0.884 1.708,-1.584 2.805,-2.093 1.1,-0.512 2.297,-0.767 3.594,-0.767 1.297,0 2.488,0.255 3.575,0.767 1.084,0.509 2.015,1.209 2.787,2.093 0.773,0.889 1.378,1.94 1.817,3.163 C -0.218,-2.742 0,-1.42 0,0 m 5.015,0 c 0,-2.021 -0.356,-3.895 -1.067,-5.628 -0.711,-1.735 -1.697,-3.233 -2.957,-4.492 -1.26,-1.26 -2.738,-2.245 -4.434,-2.954 -1.699,-0.716 -3.544,-1.07 -5.538,-1.07 -1.971,0 -3.8,0.354 -5.485,1.07 -1.683,0.709 -3.137,1.694 -4.359,2.954 -1.225,1.259 -2.176,2.757 -2.863,4.492 -0.686,1.733 -1.03,3.607 -1.03,5.628 0,2.048 0.358,3.938 1.069,5.671 0.709,1.736 1.695,3.231 2.955,4.492 1.258,1.261 2.744,2.247 4.455,2.959 1.707,0.711 3.548,1.064 5.519,1.064 1.995,0 3.828,-0.353 5.501,-1.064 1.671,-0.712 3.118,-1.698 4.341,-2.959 C 2.345,8.902 3.298,7.407 3.985,5.671 4.671,3.938 5.015,2.048 5.015,0" />
          </g>
          <g
             transform="translate(154.0854,63.374)"
             id="g4681">
            <path
               inkscape:connector-curvature="0"
               id="path4683"
               style="fill:#00376f;fill-opacity:1;fill-rule:nonzero;stroke:none"
               d="M 0,0 C -1.148,-0.722 -2.496,-1.334 -4.041,-1.834 -5.59,-2.331 -7.224,-2.58 -8.945,-2.58 c -2.17,0 -4.16,0.353 -5.969,1.069 -1.809,0.709 -3.369,1.695 -4.678,2.954 -1.31,1.259 -2.328,2.75 -3.051,4.473 -0.724,1.718 -1.084,3.604 -1.084,5.647 0,2.023 0.367,3.9 1.103,5.634 0.735,1.737 1.759,3.238 3.069,4.514 1.31,1.268 2.867,2.262 4.678,2.974 1.809,0.711 3.785,1.065 5.932,1.065 1.721,0 3.332,-0.237 4.828,-0.711 1.496,-0.473 2.83,-1.072 4.004,-1.794 l -1.61,-3.968 c -1.097,0.622 -2.281,1.127 -3.554,1.515 -1.273,0.387 -2.52,0.578 -3.744,0.578 -1.497,0 -2.844,-0.236 -4.042,-0.71 -1.197,-0.473 -2.214,-1.14 -3.048,-2.001 -0.836,-0.86 -1.479,-1.898 -1.928,-3.109 -0.449,-1.208 -0.674,-2.535 -0.674,-3.987 0,-1.445 0.231,-2.766 0.692,-3.964 0.462,-1.196 1.117,-2.224 1.965,-3.086 0.848,-0.862 1.876,-1.531 3.089,-2.003 1.209,-0.474 2.563,-0.716 4.059,-0.716 1.222,0 2.495,0.204 3.818,0.602 1.321,0.399 2.545,0.923 3.666,1.573 L 0,0 Z" />
          </g>
          <g
             transform="translate(175.603,61.2412)"
             id="g4685">
            <path
               inkscape:connector-curvature="0"
               id="path4687"
               style="fill:#00376f;fill-opacity:1;fill-rule:nonzero;stroke:none"
               d="m 0,0 -11.229,13.174 0,-13.174 -4.675,0 0,27.432 4.675,0 0,-12.351 10.78,12.351 5.652,0 L -6.775,14.26 5.802,0 0,0 Z" />
          </g>
          <g
             transform="translate(220.5132,71.7578)"
             id="g4689">
            <path
               inkscape:connector-curvature="0"
               id="path4691"
               style="fill:#00376f;fill-opacity:1;fill-rule:nonzero;stroke:none"
               d="m 0,0 c 0,-1.748 -0.262,-3.3 -0.787,-4.658 -0.524,-1.36 -1.26,-2.508 -2.207,-3.445 -0.95,-0.932 -2.104,-1.647 -3.461,-2.132 -1.361,-0.486 -2.889,-0.729 -4.586,-0.729 -3.443,0 -6.119,0.936 -8.028,2.807 -1.908,1.869 -2.861,4.588 -2.861,8.157 l 0,16.915 4.676,0 0,-16.578 c 0,-2.368 0.549,-4.135 1.648,-5.296 1.095,-1.158 2.644,-1.739 4.64,-1.739 1.97,0 3.513,0.585 4.62,1.758 1.113,1.172 1.668,2.931 1.668,5.277 l 0,16.578 4.678,0 L 0,0 Z" />
          </g>
          <g
             transform="translate(241.1343,79.4683)"
             id="g4693">
            <path
               inkscape:connector-curvature="0"
               id="path4695"
               style="fill:#00376f;fill-opacity:1;fill-rule:nonzero;stroke:none"
               d="M 0,0 C 0,0.673 -0.117,1.318 -0.357,1.929 -0.594,2.542 -0.949,3.08 -1.42,3.557 -1.896,4.03 -2.496,4.404 -3.217,4.677 -3.941,4.954 -4.779,5.09 -5.727,5.09 -6.799,5.09 -7.822,5.015 -8.793,4.866 l 0,-10.033 c 0.473,-0.05 0.92,-0.086 1.344,-0.108 0.426,-0.029 0.847,-0.041 1.275,-0.041 2.121,0 3.678,0.493 4.68,1.477 C -0.496,-2.849 0,-1.572 0,0 m 4.865,0.148 c 0,-1.397 -0.242,-2.679 -0.73,-3.855 -0.485,-1.17 -1.192,-2.175 -2.114,-3.011 -0.923,-0.836 -2.064,-1.493 -3.423,-1.964 -1.362,-0.476 -2.914,-0.713 -4.659,-0.713 -0.451,0 -0.906,0.012 -1.369,0.038 -0.463,0.027 -0.918,0.052 -1.363,0.076 l 0,-8.946 -4.68,0 0,27.172 c 2.444,0.299 4.766,0.449 6.961,0.449 1.871,0 3.518,-0.242 4.942,-0.73 C -0.15,8.178 1.041,7.516 2.004,6.683 2.961,5.843 3.68,4.866 4.154,3.742 4.629,2.621 4.865,1.426 4.865,0.148" />
          </g>
          <g
             transform="translate(85.0366,36.6143)"
             id="g4697">
            <path
               inkscape:connector-curvature="0"
               id="path4699"
               style="fill:#e6440b;fill-opacity:1;fill-rule:nonzero;stroke:none"
               d="m 0,0 c 0,-1.749 -0.262,-3.304 -0.785,-4.659 -0.526,-1.362 -1.261,-2.51 -2.209,-3.445 -0.949,-0.935 -2.103,-1.65 -3.462,-2.135 -1.36,-0.484 -2.89,-0.726 -4.584,-0.726 -3.442,0 -6.12,0.934 -8.027,2.804 -1.91,1.871 -2.865,4.59 -2.865,8.161 l 0,16.912 4.679,0 0,-16.577 c 0,-2.37 0.548,-4.137 1.648,-5.296 1.095,-1.161 2.642,-1.741 4.64,-1.741 1.971,0 3.512,0.587 4.621,1.76 1.112,1.171 1.665,2.931 1.665,5.277 l 0,16.577 4.679,0 L 0,0 Z" />
          </g>
          <g
             transform="translate(114.0405,25.5713)"
             id="g4701">
            <path
               inkscape:connector-curvature="0"
               id="path4703"
               style="fill:#e6440b;fill-opacity:1;fill-rule:nonzero;stroke:none"
               d="m 0,0 -17.178,18.112 0,-17.589 -4.677,0 0,27.81 0.749,0.146 16.952,-17.849 0,17.325 4.679,0 0,-27.843 L 0,0 Z" />
          </g>
          <path
             inkscape:connector-curvature="0"
             id="path4705"
             style="fill:#e6440b;fill-opacity:1;fill-rule:nonzero;stroke:none"
             d="m 122.237,53.526 4.677,0 0,-27.432 -4.677,0 0,27.432 z" />
          <g
             transform="translate(145.9253,49.2607)"
             id="g4707">
            <path
               inkscape:connector-curvature="0"
               id="path4709"
               style="fill:#e6440b;fill-opacity:1;fill-rule:nonzero;stroke:none"
               d="m 0,0 0,-23.166 -4.677,0 0,23.166 -8.719,0 0,4.266 22.08,0 L 8.684,0 0,0 Z" />
          </g>
        </g>
      </g>
    </g>
  </g>
</svg>
